<svg xmlns="http://www.w3.org/2000/svg" viewBox="0 0 15 15" height="15" width="15"><path d="M11.3375 4.48125a0.3125 0.3125 0 0 0 -0.23125 -0.10625000000000001H8.75V3.49375c0 -0.17500000000000002 0.0375 -0.375 0.31875 -0.375h1.875a0.2625 0.2625 0 0 0 0.21875 -0.09375 0.29374999999999996 0.29374999999999996 0 0 0 0.08750000000000001 -0.21250000000000002v-2.5a0.3125 0.3125 0 0 0 -0.3125 -0.3125h-2.70625C5.231249999999999 0 5 2.5625 5 3.34375V4.375H3.4375a0.3125 0.3125 0 0 0 -0.3125 0.3125v2.5a0.3125 0.3125 0 0 0 0.3125 0.3125H5v7.1875a0.3125 0.3125 0 0 0 0.3125 0.3125h3.125a0.3125 0.3125 0 0 0 0.3125 -0.3125V7.5h2.09375a0.3125 0.3125 0 0 0 0.3125 -0.28125l0.25625 -2.5a0.29374999999999996 0.29374999999999996 0 0 0 -0.075 -0.2375Z" fill="#ffffff" stroke-width="0.625"></path></svg>