<svg xmlns="http://www.w3.org/2000/svg" viewBox="0 0 15 15" height="15" width="15"><path d="M7.5 0.17500000000000002a7.5 7.5 0 0 0 -2.325 14.63125l0.17500000000000002 0a0.625 0.625 0 0 0 0.4375 -0.15 0.65625 0.65625 0 0 0 0.22499999999999998 -0.5125v-0.13125l0 -0.68125a0.30625 0.30625 0 0 0 -0.11875 -0.20625000000000002 0.3125 0.3125 0 0 0 -0.25625 -0.0625c-1.68125 0.3625 -2.0374999999999996 -0.6875 -2.05625 -0.75625A2.9 2.9 0 0 0 2.5 10.9375l-0.09375 -0.06875a0.45625 0.45625 0 0 1 0.2375 -0.043750000000000004 0.925 0.925 0 0 1 0.7124999999999999 0.55 1.875 1.875 0 0 0 2.5 0.725 0.33125000000000004 0.33125000000000004 0 0 0 0.1875 -0.22499999999999998 1.25 1.25 0 0 1 0.35000000000000003 -0.7625 0.3125 0.3125 0 0 0 0.09375 -0.33125000000000004 0.30625 0.30625 0 0 0 -0.2625 -0.21875c-1.4812500000000002 -0.16875 -3 -0.6875 -3 -3.2437500000000004a2.5 2.5 0 0 1 0.6625000000000001 -1.7374999999999998 0.30625 0.30625 0 0 0 0.056249999999999994 -0.325A2.225 2.225 0 0 1 3.95 3.75a3.48125 3.48125 0 0 1 1.575 0.71875 0.3 0.3 0 0 0 0.2625 0.0375A6.6625 6.6625 0 0 1 7.5 4.28125a6.4437500000000005 6.4437500000000005 0 0 1 1.71875 0.22499999999999998 0.28750000000000003 0.28750000000000003 0 0 0 0.25625 -0.0375A3.4562500000000003 3.4562500000000003 0 0 1 11.05 3.75a2.2125 2.2125 0 0 1 0 1.4874999999999998 0.3 0.3 0 0 0 0.0625 0.325 2.5 2.5 0 0 1 0.65625 1.71875c0 2.5625 -1.51875 3.075 -3.0062499999999996 3.2375a0.30625 0.30625 0 0 0 -0.2625 0.21875 0.30625 0.30625 0 0 0 0.09375 0.325 1.39375 1.39375 0 0 1 0.38125 1.09375v1.9875a0.6625000000000001 0.6625000000000001 0 0 0 0.23125 0.5125 0.7374999999999999 0.7374999999999999 0 0 0 0.6625000000000001 0.11875A7.5 7.5 0 0 0 7.5 0.17500000000000002Z" fill="#ffffff" stroke-width="0.625"></path></svg>